<svg width="30" height="30" viewBox="0 0 30 30" fill="none" xmlns="http://www.w3.org/2000/svg">
<path fill-rule="evenodd" clip-rule="evenodd" d="M19.1717 4.8703C20.1501 3.6073 20.8918 1.82218 20.6235 0C19.0244 0.11113 17.1553 1.13425 16.0647 2.4678C15.0705 3.67612 14.2534 5.47361 14.5725 7.21817C16.3207 7.27285 18.1249 6.22503 19.1717 4.8703ZM27.8125 22.0108C27.1129 23.5701 26.7762 24.2669 25.875 25.6481C24.6178 27.5761 22.8451 29.9769 20.6463 29.9945C18.6948 30.0157 18.1916 28.7156 15.5422 28.7315C12.8928 28.7456 12.3404 30.0192 10.3854 29.9998C8.18837 29.9804 6.5086 27.8142 5.25141 25.8862C1.73408 20.499 1.36411 14.1752 3.53307 10.8113C5.07607 8.42294 7.5098 7.02587 9.79624 7.02587C12.123 7.02587 13.5871 8.31005 15.5141 8.31005C17.3832 8.31005 18.5212 7.02236 21.2127 7.02236C23.2501 7.02236 25.4086 8.13894 26.9446 10.0652C21.9088 12.8417 22.7241 20.0757 27.8125 22.0108Z" fill="#0B0B0A"/>
</svg>
