<svg width="2202" height="616" viewBox="0 0 2202 616" fill="none" xmlns="http://www.w3.org/2000/svg">
<g clip-path="url(#clip0_23_1501)">
<path d="M454.398 465.07V236.87H509.818V321.956L593.6 236.87H659.126L561.978 332.388L665.32 465.07H600.772L526.444 367.27L509.818 383.896V465.07H454.398ZM666.382 465.07L756.684 236.87H803.628L893.278 465.07H837.206L820.906 421.386H737.45L721.15 465.07H666.382ZM764.182 349.666L753.098 379.332H805.258L794.174 349.34C791.783 342.82 789.284 335.648 786.676 327.824C784.068 320 781.677 312.393 779.504 305.004C777.113 312.393 774.614 319.782 772.006 327.172C769.615 334.561 767.007 342.059 764.182 349.666ZM921.75 465.07V236.87H977.17V321.956L1060.95 236.87H1126.48L1029.33 332.388L1132.67 465.07H1068.12L993.796 367.27L977.17 383.896V465.07H921.75ZM1133.73 465.07L1224.04 236.87H1270.98L1360.63 465.07H1304.56L1288.26 421.386H1204.8L1188.5 465.07H1133.73ZM1231.53 349.666L1220.45 379.332H1272.61L1261.53 349.34C1259.13 342.82 1256.64 335.648 1254.03 327.824C1251.42 320 1249.03 312.393 1246.86 305.004C1244.46 312.393 1241.97 319.782 1239.36 327.172C1236.97 334.561 1234.36 342.059 1231.53 349.666ZM1422.42 465.07V285.77H1354.61V236.87H1547.27V285.77H1477.84V465.07H1422.42ZM1682.65 467.026C1663.75 467.026 1646.9 463.222 1632.12 455.616C1617.56 447.792 1606.04 437.142 1597.57 423.668C1589.09 410.193 1584.85 394.762 1584.85 377.376V236.87H1640.93V374.442C1640.93 382.7 1642.77 390.198 1646.47 396.936C1650.16 403.456 1655.16 408.672 1661.46 412.584C1667.77 416.278 1674.83 418.126 1682.65 418.126C1690.7 418.126 1697.98 416.278 1704.5 412.584C1711.23 408.672 1716.45 403.456 1720.14 396.936C1724.06 390.198 1726.01 382.7 1726.01 374.442V236.87H1780.13V377.376C1780.13 394.762 1775.89 410.193 1767.41 423.668C1758.94 437.142 1747.31 447.792 1732.53 455.616C1717.97 463.222 1701.34 467.026 1682.65 467.026ZM1800.38 465.07L1890.68 236.87H1937.62L2027.27 465.07H1971.2L1954.9 421.386H1871.45L1855.15 465.07H1800.38ZM1898.18 349.666L1887.09 379.332H1939.25L1928.17 349.34C1925.78 342.82 1923.28 335.648 1920.67 327.824C1918.06 320 1915.67 312.393 1913.5 305.004C1911.11 312.393 1908.61 319.782 1906 327.172C1903.61 334.561 1901 342.059 1898.18 349.666Z" fill="black"/>
<path d="M242.82 369.26C261.552 362.571 278.959 352.632 294.24 339.9C300.13 334.96 305.667 329.614 310.81 323.9C315.44 320.19 316.81 313.95 314.37 309.22C313.343 307.36 311.831 305.814 309.994 304.746C308.157 303.679 306.064 303.131 303.94 303.16L370.49 257C372.11 254.718 372.981 251.988 372.981 249.19C372.981 246.391 372.11 243.662 370.49 241.38L420.49 210.31C420.96 209.66 424.31 204.93 422.73 199.66C421.09 194.17 414.73 190.28 407.6 191.26L447.11 159.04C447.41 158.65 452.11 152.58 449.63 145.59C448.514 142.689 446.496 140.225 443.872 138.559C441.249 136.893 438.159 136.115 435.06 136.34C448.9 128.666 461.704 119.257 473.16 108.34C476.64 105.02 479.85 101.69 482.81 98.3998C483.7 96.3998 485.2 92.0298 483.57 87.7498C481 80.9998 471.57 76.6698 460.81 79.0998L367.53 92.9198L263.19 206.76L212.85 349.36L242.82 369.26Z" fill="#0C0C0C"/>
<path d="M34.155 142.259L32.4519 143.218C23.746 148.116 16.5553 155.315 11.6664 164.026C4.34586 177.231 4.56886 190.213 5.43425 197.312C12.4476 197.351 25.6828 198.984 36.5143 209.763L34.155 142.259ZM34.155 142.259L34.7569 140.4M34.155 142.259L34.7569 140.4M34.7569 140.4C35.3424 138.592 38.073 130.439 42.4337 120.792C46.8342 111.057 52.7077 100.225 59.4651 92.7674L59.4656 92.7669M34.7569 140.4L59.4656 92.7669M59.4656 92.7669C66.4564 85.0498 78.8913 76.1597 103.028 72.8766M59.4656 92.7669L103.028 72.8766M103.028 72.8766C100.566 75.8759 98.3794 79.1036 96.4998 82.522C92.2605 90.2321 89.6783 98.7426 88.9187 107.508L87.4166 124.842L97.8921 110.95C104.471 102.226 113.464 95.6242 123.759 91.9616C130.728 89.482 138.086 88.4236 145.405 88.8079C138.057 96.0882 128.601 108.365 124.839 126.06L124.836 126.074L124.834 126.087C121.46 142.398 123.625 159.368 130.985 174.309L133.782 179.988L138.658 175.952C172.825 147.675 211.417 118.263 254.644 88.99L254.645 88.9892C297.962 59.6365 342.775 32.5529 388.901 7.84763L389.077 7.75346L389.244 7.64559C395.91 3.35938 403.767 4.61533 407.757 8.96153C409.951 11.3541 410.699 14.3517 410.793 17.1341C410.839 18.5067 410.72 19.7331 410.579 20.642C410.541 20.8886 410.502 21.1077 410.466 21.2954C406.704 26.3527 402.556 31.5526 397.938 36.8874C389.303 46.8077 379.92 56.0525 369.873 64.5406L375.219 72.8888C382.834 69.3255 389.14 72.1316 390.849 75.1215L390.852 75.1256C391.522 76.2965 391.709 77.7327 391.567 79.2654C391.474 80.2638 391.255 81.1471 391.064 81.7725L360.659 118.259L366.324 126.115C367.074 125.822 368.631 125.247 370.362 125.01C372.178 124.761 373.418 124.989 374.136 125.446C375.144 126.098 376.67 128.25 376.765 132.687C376.853 136.806 375.627 142.173 372.306 147.9L338.147 182.592L335.792 184.984L337.114 188.069C338.372 191.006 338.451 194.313 337.336 197.305C336.72 198.747 335.806 200.044 334.654 201.11L334.479 201.272L334.321 201.449L290.411 250.609L290.371 250.654L290.332 250.699L287.132 254.459L278.362 264.764L291.726 262.638C293.571 262.344 295.462 262.614 297.152 263.412C298.824 264.201 300.222 265.471 301.167 267.059C302.116 268.796 302.242 270.62 302.034 272.232C301.879 273.429 301.555 274.372 301.38 274.818C284.55 299.809 262.973 321.252 237.873 337.925L232.582 341.44L237.242 345.758C240.368 348.655 242.777 352.24 244.278 356.229C245.778 360.218 246.329 364.502 245.887 368.741L245.689 370.643L246.81 372.192L417.71 608.218C414.456 609.165 411.13 609.862 407.763 610.302C388.009 612.841 368.208 606.014 349.13 593.371C330.053 580.728 312.11 562.533 296.313 543.142C264.727 504.37 242.373 461.639 237.2 451.54L235.757 448.724L232.594 448.822C224.741 449.068 132.216 450.254 78.713 375.11L78.7128 375.11C40.7445 321.795 46.42 263.903 48.3368 249.119C48.8655 246.378 52.2959 225.447 36.5154 209.764L103.028 72.8766Z" fill="#FDE900" stroke="#0C0C0C" stroke-width="10"/>
<path d="M66.16 180.11C75.3058 180.11 82.72 172.696 82.72 163.55C82.72 154.404 75.3058 146.99 66.16 146.99C57.0141 146.99 49.6 154.404 49.6 163.55C49.6 172.696 57.0141 180.11 66.16 180.11Z" fill="white"/>
</g>
<defs>
<clipPath id="clip0_23_1501">
<rect width="2201.88" height="615.83" fill="white"/>
</clipPath>
</defs>
</svg>
