<svg width="2028" height="616" viewBox="0 0 2028 616" fill="none" xmlns="http://www.w3.org/2000/svg">
<path d="M494.822 398.24L480.478 351.622L593.6 236.87H659.126L494.822 398.24ZM454.398 465.07V236.87H509.818V465.07H454.398ZM600.772 465.07L516.012 353.578L553.502 321.304L665.32 465.07H600.772ZM666.382 465.07L756.684 236.87H803.628L893.278 465.07H837.206L794.174 349.34C792.435 344.776 790.697 339.886 788.958 334.67C787.219 329.454 785.481 324.129 783.742 318.696C782.003 313.045 780.265 307.612 778.526 302.396C777.005 296.962 775.701 291.964 774.614 287.4L784.394 287.074C783.09 292.507 781.569 297.832 779.83 303.048C778.309 308.264 776.679 313.48 774.94 318.696C773.419 323.694 771.68 328.802 769.724 334.018C767.768 339.016 765.921 344.232 764.182 349.666L721.15 465.07H666.382ZM709.414 421.386L726.692 379.658H831.664L848.616 421.386H709.414ZM962.174 398.24L947.83 351.622L1060.95 236.87H1126.48L962.174 398.24ZM921.75 465.07V236.87H977.17V465.07H921.75ZM1068.12 465.07L983.364 353.578L1020.85 321.304L1132.67 465.07H1068.12ZM1133.73 465.07L1224.04 236.87H1270.98L1360.63 465.07H1304.56L1261.53 349.34C1259.79 344.776 1258.05 339.886 1256.31 334.67C1254.57 329.454 1252.83 324.129 1251.09 318.696C1249.35 313.045 1247.62 307.612 1245.88 302.396C1244.36 296.962 1243.05 291.964 1241.97 287.4L1251.75 287.074C1250.44 292.507 1248.92 297.832 1247.18 303.048C1245.66 308.264 1244.03 313.48 1242.29 318.696C1240.77 323.694 1239.03 328.802 1237.08 334.018C1235.12 339.016 1233.27 344.232 1231.53 349.666L1188.5 465.07H1133.73ZM1176.77 421.386L1194.04 379.658H1299.02L1315.97 421.386H1176.77ZM1422.42 465.07V285.77H1354.61V236.87H1547.27V285.77H1477.84V465.07H1422.42ZM1682.65 467.026C1663.75 467.026 1646.9 463.222 1632.12 455.616C1617.35 447.792 1605.72 437.142 1597.24 423.668C1588.98 410.193 1584.85 394.762 1584.85 377.376V236.87H1640.93V374.442C1640.93 382.7 1642.77 390.198 1646.47 396.936C1650.16 403.456 1655.16 408.672 1661.46 412.584C1667.77 416.278 1674.83 418.126 1682.65 418.126C1690.91 418.126 1698.19 416.278 1704.5 412.584C1711.02 408.672 1716.23 403.456 1720.14 396.936C1724.06 390.198 1726.01 382.7 1726.01 374.442V236.87H1780.13V377.376C1780.13 394.762 1775.89 410.193 1767.41 423.668C1759.16 437.142 1747.64 447.792 1732.86 455.616C1718.08 463.222 1701.34 467.026 1682.65 467.026ZM1800.38 465.07L1890.68 236.87H1937.62L2027.27 465.07H1971.2L1928.17 349.34C1926.43 344.776 1924.69 339.886 1922.95 334.67C1921.22 329.454 1919.48 324.129 1917.74 318.696C1916 313.045 1914.26 307.612 1912.52 302.396C1911 296.962 1909.7 291.964 1908.61 287.4L1918.39 287.074C1917.09 292.507 1915.56 297.832 1913.83 303.048C1912.3 308.264 1910.67 313.48 1908.94 318.696C1907.41 323.694 1905.68 328.802 1903.72 334.018C1901.76 339.016 1899.92 344.232 1898.18 349.666L1855.15 465.07H1800.38ZM1843.41 421.386L1860.69 379.658H1965.66L1982.61 421.386H1843.41Z" fill="black"/>
<path d="M242.82 369.26C261.552 362.571 278.959 352.632 294.24 339.9C300.13 334.96 305.667 329.614 310.81 323.9C315.44 320.19 316.81 313.95 314.37 309.22C313.343 307.36 311.831 305.814 309.994 304.746C308.157 303.679 306.064 303.131 303.94 303.16L370.49 257C372.11 254.718 372.981 251.988 372.981 249.19C372.981 246.391 372.11 243.662 370.49 241.38L420.49 210.31C420.96 209.66 424.31 204.93 422.73 199.66C421.09 194.17 414.73 190.28 407.6 191.26L447.11 159.04C447.41 158.65 452.11 152.58 449.63 145.59C448.514 142.689 446.496 140.225 443.872 138.559C441.249 136.893 438.159 136.115 435.06 136.34C448.9 128.666 461.704 119.257 473.16 108.34C476.64 105.02 479.85 101.69 482.81 98.3998C483.7 96.3998 485.2 92.0298 483.57 87.7498C481 80.9998 471.57 76.6698 460.81 79.0998L367.53 92.9198L263.19 206.76L212.85 349.36L242.82 369.26Z" fill="#0C0C0C"/>
<path d="M58.7245 92.0955C66.14 83.9095 79.4334 74.5728 105.47 71.562C102.358 75.0494 99.6402 78.886 97.376 83.0038C93.2038 90.5918 90.6625 98.9676 89.9149 107.595C89.7609 109.372 90.8021 111.036 92.4674 111.675C94.1328 112.313 96.0198 111.772 97.0937 110.348C103.79 101.468 112.945 94.7476 123.424 91.0195C131.235 88.2404 139.526 87.2151 147.715 87.9729C140.302 94.8996 129.809 107.494 125.817 126.268L125.813 126.29C122.484 142.383 124.62 159.126 131.882 173.868C132.422 174.965 133.436 175.755 134.633 176.011C135.829 176.268 137.077 175.962 138.02 175.182C172.21 146.886 210.828 117.454 254.083 88.162L254.084 88.1614C297.43 58.7893 342.272 31.6877 388.429 6.96611C388.522 6.91591 388.614 6.86199 388.703 6.80448C395.727 2.28789 404.134 3.53806 408.492 8.28404C410.904 10.9123 411.694 14.1744 411.792 17.1005C411.841 18.5485 411.715 19.8385 411.568 20.7945C411.512 21.1573 411.453 21.4667 411.402 21.7123C407.588 26.8476 403.38 32.1292 398.688 37.5491C390.02 47.506 380.603 56.7849 370.519 65.3045C368.986 66.5989 368.65 68.828 369.731 70.5171C370.813 72.2062 372.978 72.8331 374.795 71.983C382.726 68.2724 389.672 71.0473 391.717 74.6252L391.719 74.6285C392.527 76.0382 392.716 77.7021 392.562 79.3581C392.451 80.5485 392.176 81.5827 391.96 82.26L361.427 118.899C360.258 120.302 360.188 122.318 361.256 123.8C362.324 125.281 364.259 125.851 365.959 125.184C366.73 124.882 368.376 124.273 370.226 124.019C372.147 123.756 373.671 123.962 374.679 124.606C376.076 125.51 377.666 128.056 377.765 132.666C377.858 137.018 376.555 142.607 373.107 148.512L338.86 183.294C337.72 184.451 337.394 186.182 338.033 187.675C339.396 190.855 339.478 194.438 338.265 197.676C337.593 199.257 336.594 200.677 335.333 201.844C335.24 201.93 335.151 202.021 335.067 202.115L291.157 251.275C291.136 251.299 291.115 251.323 291.094 251.348L287.894 255.108C286.809 256.383 286.632 258.199 287.452 259.659C288.272 261.119 289.915 261.913 291.569 261.65C293.613 261.325 295.707 261.624 297.579 262.508C299.437 263.385 300.989 264.798 302.036 266.564C304.053 270.239 302.711 274.209 302.271 275.286C285.359 300.425 263.666 321.992 238.427 338.758C237.405 339.437 236.751 340.546 236.653 341.769C236.554 342.991 237.022 344.191 237.921 345.024C241.162 348.026 243.658 351.742 245.214 355.877C246.769 360.011 247.34 364.451 246.882 368.845C246.779 369.825 247.042 370.808 247.62 371.606L419.344 608.768C415.613 609.94 411.784 610.785 407.899 611.293C387.82 613.877 367.775 606.926 348.578 594.204C329.384 581.485 311.368 563.206 295.537 543.774C263.883 504.918 241.492 462.111 236.31 451.996C235.605 450.62 234.17 449.774 232.625 449.822C224.743 450.068 131.723 451.285 77.8984 375.69L77.8982 375.69C39.678 322.022 45.4271 263.764 47.3492 248.96C47.8391 246.442 51.2842 225.852 35.8118 210.475C24.7662 199.481 11.1445 198.226 4.55606 198.316C3.59392 191.326 3.0185 177.56 10.7939 163.538C15.7726 154.666 23.0955 147.335 31.9615 142.346C32.8376 141.853 33.4959 141.048 33.8055 140.092C34.3979 138.262 37.1414 130.072 41.5224 120.38C45.9353 110.617 51.8601 99.6708 58.7241 92.0959L58.7245 92.0955Z" fill="#FDE900" stroke="#0C0C0C" stroke-width="8" stroke-linejoin="round"/>
<path d="M78.72 163.55C78.72 170.487 73.0967 176.11 66.16 176.11C59.2233 176.11 53.6 170.487 53.6 163.55C53.6 156.614 59.2233 150.99 66.16 150.99C73.0967 150.99 78.72 156.614 78.72 163.55Z" fill="white" stroke="black" stroke-width="8"/>
</svg>
